PathFileType	4	(X/Y/Z)	 New Session 108.trc
DataRate	CameraRate	NumFrames	NumMarkers	Units	OrigDataRate	OrigDataStartFrame	OrigNumFrames
100	100	22	14	m	100	119	945
Frame#	Time	C7			T8			IJ			PX			AA			AC			AI			TS			SC			GH			LE			ME			US			RS			
		X1	Y1	Z1	X2	Y2	Z2	X3	Y3	Z3	X4	Y4	Z4	X5	Y5	Z5	X6	Y6	Z6	X7	Y7	Z7	X8	Y8	Z8	X9	Y9	Z9	X10	Y10	Z10	X11	Y11	Z11	X12	Y12	Z12	X13	Y13	Z13	X14	Y14	Z14	
119	1.1900	0.017330	0.102170	0.163539	0.009059	-0.113897	0.231425	-0.006980	0.000211	-0.001024	-0.010248	-0.141289	-0.070411	0.206858	-0.001126	0.154896	0.163853	0.041652	0.079340	0.090725	0.023194	0.204439	0.089055	-0.096825	0.236892	0.017915	0.008058	0.003654	0.222557	0.011325	0.116063	0.275051	-0.279839	0.058156	0.198022	-0.301025	0.009516	0.334897	-0.532653	-0.044367	0.403372	-0.501569	-0.056523	
120	1.2000	0.017304	0.102197	0.163466	0.009051	-0.113870	0.231382	-0.007034	0.000209	-0.001091	-0.010266	-0.141286	-0.070467	0.206836	-0.001083	0.154809	0.163815	0.041675	0.079255	0.090715	0.023228	0.204366	0.089071	-0.096780	0.236840	0.017857	0.008063	0.003579	0.222542	0.011365	0.115978	0.275002	-0.279820	0.058123	0.197969	-0.301011	0.009518	0.334899	-0.532617	-0.044289	0.403299	-0.501580	-0.056502	
121	1.2100	0.017287	0.102233	0.163390	0.009042	-0.113842	0.231341	-0.007088	0.000210	-0.001151	-0.010282	-0.141282	-0.070523	0.206817	-0.001036	0.154718	0.163782	0.041705	0.079171	0.090705	0.023269	0.204281	0.089084	-0.096728	0.236788	0.017795	0.008057	0.003496	0.222525	0.011411	0.115889	0.274952	-0.279799	0.058102	0.197915	-0.300992	0.009518	0.334884	-0.532582	-0.044257	0.403219	-0.501583	-0.056504	
122	1.2200	0.017275	0.102269	0.163314	0.009032	-0.113813	0.231304	-0.007139	0.000212	-0.001208	-0.010297	-0.141276	-0.070581	0.206798	-0.000998	0.154620	0.163758	0.041726	0.079090	0.090703	0.023313	0.204190	0.089067	-0.096690	0.236681	0.017745	0.008045	0.003410	0.222507	0.011453	0.115796	0.274903	-0.279786	0.058086	0.197865	-0.300973	0.009515	0.334850	-0.532556	-0.044266	0.403134	-0.501583	-0.056530	
123	1.2300	0.017265	0.102295	0.163238	0.009021	-0.113786	0.231270	-0.007180	0.000217	-0.001265	-0.010312	-0.141269	-0.070639	0.206784	-0.000970	0.154529	0.163739	0.041735	0.079013	0.090702	0.023351	0.204104	0.089006	-0.096686	0.236492	0.017716	0.008036	0.003328	0.222494	0.011483	0.115704	0.274857	-0.279788	0.058065	0.197822	-0.300961	0.009512	0.334803	-0.532549	-0.044300	0.403055	-0.501587	-0.056564	
124	1.2400	0.017251	0.102310	0.163165	0.009009	-0.113761	0.231239	-0.007208	0.000222	-0.001322	-0.010327	-0.141258	-0.070696	0.206773	-0.000948	0.154458	0.163716	0.041739	0.078945	0.090696	0.023377	0.204035	0.088920	-0.096711	0.236263	0.017705	0.008031	0.003259	0.222487	0.011504	0.115622	0.274818	-0.279800	0.058040	0.197792	-0.300957	0.009515	0.334747	-0.532565	-0.044341	0.402994	-0.501600	-0.056582	
125	1.2500	0.017232	0.102319	0.163098	0.008998	-0.113740	0.231213	-0.007219	0.000225	-0.001382	-0.010342	-0.141244	-0.070751	0.206760	-0.000933	0.154407	0.163691	0.041740	0.078890	0.090686	0.023391	0.203987	0.088852	-0.096740	0.236088	0.017696	0.008029	0.003202	0.222484	0.011521	0.115557	0.274788	-0.279814	0.058015	0.197776	-0.300961	0.009526	0.334686	-0.532598	-0.044372	0.402951	-0.501622	-0.056582	
126	1.2600	0.017211	0.102328	0.163038	0.008988	-0.113723	0.231190	-0.007217	0.000225	-0.001443	-0.010357	-0.141228	-0.070802	0.206747	-0.000923	0.154371	0.163675	0.041741	0.078844	0.090672	0.023397	0.203951	0.088831	-0.096752	0.236027	0.017680	0.008032	0.003153	0.222482	0.011534	0.115508	0.274768	-0.279823	0.057989	0.197773	-0.300969	0.009544	0.334626	-0.532644	-0.044386	0.402917	-0.501651	-0.056570	
127	1.2700	0.017190	0.102335	0.162984	0.008980	-0.113710	0.231171	-0.007206	0.000219	-0.001505	-0.010372	-0.141210	-0.070849	0.206739	-0.000920	0.154343	0.163671	0.041743	0.078800	0.090651	0.023398	0.203915	0.088853	-0.096744	0.236072	0.017662	0.008044	0.003111	0.222483	0.011542	0.115466	0.274752	-0.279826	0.057964	0.197777	-0.300977	0.009562	0.334571	-0.532693	-0.044385	0.402885	-0.501687	-0.056552	
128	1.2800	0.017178	0.102338	0.162932	0.008973	-0.113700	0.231153	-0.007190	0.000208	-0.001565	-0.010384	-0.141193	-0.070894	0.206734	-0.000929	0.154313	0.163673	0.041751	0.078750	0.090631	0.023395	0.203874	0.088891	-0.096724	0.236161	0.017653	0.008061	0.003079	0.222489	0.011543	0.115425	0.274733	-0.279829	0.057940	0.197783	-0.300981	0.009570	0.334520	-0.532736	-0.044373	0.402852	-0.501733	-0.056531	
129	1.2900	0.017179	0.102332	0.162877	0.008967	-0.113693	0.231136	-0.007173	0.000194	-0.001623	-0.010392	-0.141177	-0.070938	0.206730	-0.000950	0.154271	0.163680	0.041758	0.078702	0.090623	0.023392	0.203828	0.088917	-0.096707	0.236218	0.017657	0.008071	0.003055	0.222503	0.011535	0.115378	0.274707	-0.279839	0.057915	0.197785	-0.300978	0.009552	0.334475	-0.532771	-0.044358	0.402817	-0.501790	-0.056510	
130	1.3000	0.017200	0.102309	0.162813	0.008963	-0.113688	0.231118	-0.007153	0.000183	-0.001678	-0.010397	-0.141163	-0.070983	0.206730	-0.000976	0.154216	0.163697	0.041752	0.078669	0.090636	0.023391	0.203779	0.088918	-0.096701	0.236201	0.017670	0.008068	0.003031	0.222524	0.011522	0.115331	0.274676	-0.279859	0.057889	0.197782	-0.300971	0.009498	0.334433	-0.532798	-0.044347	0.402773	-0.501854	-0.056501	
131	1.3100	0.017243	0.102266	0.162731	0.008959	-0.113687	0.231100	-0.007127	0.000180	-0.001731	-0.010398	-0.141149	-0.071028	0.206736	-0.000999	0.154162	0.163730	0.041734	0.078649	0.090666	0.023389	0.203733	0.088890	-0.096710	0.236092	0.017687	0.008055	0.003000	0.222549	0.011505	0.115287	0.274647	-0.279889	0.057861	0.197774	-0.300965	0.009408	0.334393	-0.532820	-0.044348	0.402720	-0.501920	-0.056508	
132	1.3200	0.017298	0.102215	0.162640	0.008956	-0.113689	0.231081	-0.007095	0.000190	-0.001782	-0.010397	-0.141134	-0.071074	0.206752	-0.001017	0.154119	0.163773	0.041715	0.078634	0.090701	0.023386	0.203700	0.088849	-0.096727	0.235941	0.017708	0.008038	0.002966	0.222574	0.011484	0.115248	0.274623	-0.279923	0.057833	0.197761	-0.300965	0.009288	0.334352	-0.532840	-0.044364	0.402666	-0.501982	-0.056521	
133	1.3300	0.017351	0.102178	0.162559	0.008952	-0.113696	0.231060	-0.007054	0.000214	-0.001831	-0.010396	-0.141117	-0.071121	0.206773	-0.001036	0.154091	0.163802	0.041698	0.078613	0.090734	0.023380	0.203679	0.088832	-0.096739	0.235853	0.017731	0.008025	0.002933	0.222595	0.011458	0.115215	0.274605	-0.279957	0.057805	0.197747	-0.300975	0.009152	0.334307	-0.532860	-0.044394	0.402622	-0.502043	-0.056523	
134	1.3400	0.017392	0.102157	0.162499	0.008948	-0.113707	0.231037	-0.007006	0.000247	-0.001879	-0.010397	-0.141098	-0.071170	0.206798	-0.001063	0.154082	0.163816	0.041682	0.078589	0.090765	0.023368	0.203662	0.088858	-0.096740	0.235889	0.017755	0.008023	0.002901	0.222620	0.011422	0.115195	0.274587	-0.279993	0.057775	0.197735	-0.300995	0.009020	0.334258	-0.532891	-0.044431	0.402587	-0.502106	-0.056515	
135	1.3500	0.017424	0.102142	0.162456	0.008942	-0.113722	0.231012	-0.006949	0.000284	-0.001928	-0.010401	-0.141079	-0.071221	0.206826	-0.001106	0.154085	0.163831	0.041655	0.078571	0.090793	0.023343	0.203643	0.088916	-0.096742	0.236019	0.017782	0.008033	0.002872	0.222653	0.011375	0.115190	0.274562	-0.280034	0.057741	0.197727	-0.301023	0.008907	0.334207	-0.532940	-0.044469	0.402554	-0.502173	-0.056507	
136	1.3600	0.017460	0.102123	0.162426	0.008934	-0.113739	0.230986	-0.006888	0.000315	-0.001977	-0.010405	-0.141063	-0.071273	0.206853	-0.001165	0.154086	0.163858	0.041609	0.078559	0.090819	0.023303	0.203617	0.088969	-0.096763	0.236145	0.017815	0.008047	0.002846	0.222690	0.011314	0.115195	0.274527	-0.280084	0.057702	0.197725	-0.301056	0.008821	0.334158	-0.533008	-0.044508	0.402520	-0.502249	-0.056501	
137	1.3700	0.017504	0.102100	0.162403	0.008923	-0.113756	0.230958	-0.006824	0.000336	-0.002025	-0.010410	-0.141048	-0.071324	0.206869	-0.001238	0.154081	0.163897	0.041550	0.078549	0.090846	0.023256	0.203588	0.088985	-0.096805	0.236186	0.017853	0.008057	0.002818	0.222721	0.011249	0.115200	0.274491	-0.280142	0.057660	0.197726	-0.301088	0.008762	0.334116	-0.533085	-0.044548	0.402490	-0.502332	-0.056494	
138	1.3800	0.017555	0.102080	0.162384	0.008909	-0.113772	0.230930	-0.006760	0.000345	-0.002070	-0.010412	-0.141035	-0.071375	0.206870	-0.001311	0.154073	0.163935	0.041497	0.078533	0.090871	0.023212	0.203563	0.088958	-0.096858	0.236119	0.017889	0.008061	0.002785	0.222748	0.011190	0.115205	0.274468	-0.280200	0.057619	0.197729	-0.301117	0.008725	0.334085	-0.533155	-0.044590	0.402465	-0.502412	-0.056494	
139	1.3900	0.017605	0.102069	0.162367	0.008894	-0.113786	0.230901	-0.006695	0.000345	-0.002112	-0.010410	-0.141022	-0.071425	0.206865	-0.001373	0.154068	0.163961	0.041463	0.078516	0.090891	0.023178	0.203549	0.088903	-0.096908	0.235976	0.017921	0.008065	0.002746	0.222773	0.011145	0.115212	0.274467	-0.280250	0.057581	0.197732	-0.301139	0.008707	0.334064	-0.533209	-0.044630	0.402445	-0.502477	-0.056509	
140	1.4000	0.017650	0.102071	0.162347	0.008877	-0.113798	0.230872	-0.006628	0.000339	-0.002149	-0.010403	-0.141005	-0.071477	0.206871	-0.001416	0.154066	0.163978	0.041448	0.078502	0.090907	0.023157	0.203542	0.088853	-0.096940	0.235839	0.017950	0.008079	0.002710	0.222796	0.011114	0.115215	0.274488	-0.280282	0.057548	0.197737	-0.301158	0.008711	0.334048	-0.533243	-0.044668	0.402428	-0.502520	-0.056547	
